# AST/ASF file generated using VICON BodyLanguage
# -----------------------------------------------
:version 1.10
:name VICON
:units
  mass 1.0
  length 0.45
  angle deg
:documentation
   .ast/.asf automatically generated from VICON data using
   VICON BodyBuilder and BodyLanguage model FoxedUp or BRILLIANT.MOD
:root
   order TX TY TZ RX RY RZ
   axis XYZ
   position 0 0 0  
   orientation 0 0 0 
:bonedata
  begin
     id 1 
     name lhipjoint
     direction 0.692814 -0.645514 0.321437 
     length 2.38754 
     axis 0 0 0  XYZ
  end
  begin
     id 2 
     name lfemur
     direction 0.34202 -0.939693 0  
     length 6.41921  
     axis 0 0 20  XYZ
    dof rx ry rz
    limits (-160.0 20.0)
           (-70.0 70.0)
           (-60.0 70.0)
  end
  begin
     id 3 
     name ltibia
     direction 0.34202 -0.939693 0   
     length 6.98247   
     axis 0 0 20   XYZ
    dof rx
    limits (-10.0 170.0)
  end
  begin
     id 4 
     name lfoot
     direction 0.0947186 -0.260237 0.960888   
     length 1.83034   
     axis -90 7.62852e-016 20   XYZ
    dof rx rz
    limits (-45.0 90.0)
           (-70.0 20.0)
  end
  begin
     id 5 
     name ltoes
     direction 1.53538e-011 -4.21952e-011 1   
     length 0.920499   
     axis -90 7.62852e-016 20   XYZ
    dof rx
    limits (-90.0 20.0)
  end
  begin
     id 6 
     name rhipjoint
     direction -0.631686 -0.693949 0.345555   
     length 2.2209  
     axis 0 0 0  XYZ 
  end
  begin
     id 7 
     name rfemur
     direction -0.34202 -0.939693 0   
     length 6.49542   
     axis 0 0 -20   XYZ
    dof rx ry rz
    limits (-160.0 20.0)
           (-70.0 70.0)
           (-70.0 60.0)
  end
  begin
     id 8 
     name rtibia
     direction -0.34202 -0.939693 0   
     length 7.21712   
     axis 0 0 -20   XYZ
    dof rx
    limits (-10.0 170.0)
 end
 begin
     id 9 
     name rfoot
     direction -0.0825378 -0.226771 0.970444   
     length 1.89724  
     axis -90 -7.62852e-016 -20   XYZ
    dof rx rz
    limits (-45.0 90.0)
           (-20.0 70.0)
  end
  begin
     id 10 
     name rtoes
     direction -1.53515e-011 -4.22016e-011 1   
     length 0.955868   
     axis -90 -7.62852e-016 -20   XYZ
    dof rx
    limits (-90.0 20.0)
  end
  begin
     id 11 
     name lowerback
     direction -0.0104711 0.984802 -0.173368   
     length 1.84931   
     axis 0 0 0   XYZ
    dof rx ry rz
    limits (-20.0 45.0)
           (-30.0 30.0)
           (-30.0 30.0)
  end
  begin
     id 12 
     name upperback
     direction -0.00286433 0.999996 -0.000382853   
     length 1.85768   
     axis 0 0 0   XYZ
    dof rx ry rz
    limits (-20.0 45.0)
           (-30.0 30.0)
           (-30.0 30.0)
  end
  begin
     id 13 
     name thorax
     direction 0.00167534 0.996793 0.0800069   
     length 1.92   
     axis 0 0 0   XYZ
    dof rx ry rz
    limits (-20.0 45.0)
           (-30.0 30.0)
           (-30.0 30.0)
  end
  begin
     id 14 
     name lowerneck
     direction -0.0672491 0.995415 0.068018   
     length 1.58923   
     axis 0 0 0   XYZ
    dof rx ry rz
    limits (-20.0 45.0)
           (-30.0 30.0)
           (-30.0 30.0)
  end
  begin
     id 15 
     name upperneck
     direction 0.0958019 0.982476 -0.159884   
     length 1.60189   
     axis 0 0 0   XYZ
    dof rx ry rz
    limits (-20.0 45.0)
           (-30.0 30.0)
           (-30.0 30.0)
  end
  begin
     id 16
     name head
     direction 0.032989 0.997338 -0.0650226  
     length 1.61681  
     axis 0 0 0   XYZ
    dof rx ry rz
    limits (-20.0 45.0)
           (-30.0 30.0)
           (-30.0 30.0)
  end
  begin
     id 17 
     name lclavicle
     direction 0.954279 0.298875 -0.00496069  
     length 2.99449  
     axis 0 0 0   XYZ
    dof ry rz
    limits (-20.0 10.0)
           (0.0 20.0)
  end
  begin
     id 18 
     name lhumerus
     direction 1 -4.48985e-011 -4.2057e-027   
     length 4.79185   
     axis 180 -30 -90   XYZ
    dof rx ry rz
    limits (-60.0 90.0)
           (-90.0 90.0)
           (-90.0 90.0)
  end
  begin
     id 19
     name lradius
     direction 1 -4.48945e-011 1.15441e-028   
     length 2.65553   
     axis 180 -30 -90   XYZ
    dof rx
    limits (-10.0 170.0)
  end
  begin
     id 20
     name lwrist
     direction 1 -4.4899e-011 4.8894e-028   
     length 1.32777   
     axis -2.56392e-016 90 90   XYZ
    dof ry
    limits (-180.0 0.0)
 end
  begin
     id 21 
     name lhand
     direction 1 -4.48908e-011 9.7788e-028   
     length 0.743904   
     axis -6.23971e-016 90 90   XYZ
    dof rx rz
    limits (-90.0 90.0)
           (-45.0 45.0)
  end
  begin
     id 22 
     name lfingers
     direction 1 -4.49068e-011 1.95576e-027   
     length 0.599754   
     axis -1.24794e-015 90 90   XYZ
    dof rx
    limits (0.0 90.0)
  end
  begin
     id 23
     name lthumb
     direction 0.707107 -6.34883e-011 0.707107   
     length 0.861131   
     axis -90 45 2.85299e-015   XYZ
    dof rx rz
    limits (-45.0 45.0)
           (-45.0 45.0)
  end
  begin
     id 24 
     name rclavicle
     direction -0.957921 0.286916 0.00811568   
     length 3.06817  
     axis 0 0 0   XYZ 
    dof ry rz
    limits (-10.0 20.0)
           (-20.0 0.0)
  end
  begin
     id 25 
     name rhumerus
     direction -1 -4.48971e-011 -3.07942e-027  
     length 4.77254   
     axis 180 30 90   XYZ
    dof rx ry rz
    limits (-90.0 60.0)
           (-90.0 90.0)
           (-90.0 90.0)
  end
  begin
     id 26 
     name rradius
     direction -1 -4.48957e-011 -9.6815e-028   
     length 2.75995   
     axis 180 30 90   XYZ
    dof rx
    limits (-10.0 170.0)
  end
  begin
     id 27 
     name rwrist
     direction -1 -4.48979e-011 4.8894e-028   
     length 1.37997   
     axis -2.56392e-016 -90 -90   XYZ
    dof ry
    limits (-180.0 0.0)
  end
  begin
     id 28
     name rhand
     direction -1 -4.48906e-011 9.7788e-028   
     length 0.701619   
     axis -6.23971e-016 -90 -90   XYZ
    dof rx rz
    limits (-90.0 90.0)
           (-45.0 45.0)
  end
  begin
     id 29
     name rfingers
     direction -1 -4.49018e-011 1.95576e-027   
     length 0.565663   
     axis -1.24794e-015 -90 -90   XYZ
    dof rx
    limits (0.0 90.0)
  end
  begin
     id 30
     name rthumb
     direction -0.707107 -6.34881e-011 0.707107   
     length 0.812183   
     axis -90 -45 -2.85299e-015   XYZ
    dof rx rz
    limits (-45.0 45.0)
           (-45.0 45.0)
  end
:hierarchy
  begin
    root lhipjoint rhipjoint lowerback
    lhipjoint lfemur
    lfemur ltibia
    ltibia lfoot
    lfoot ltoes
    rhipjoint rfemur
    rfemur rtibia
    rtibia rfoot
    rfoot rtoes
    lowerback upperback
    upperback thorax
    thorax lowerneck lclavicle rclavicle
    lowerneck upperneck
    upperneck head
    lclavicle lhumerus
    lhumerus lradius
    lradius lwrist
    lwrist lhand lthumb
    lhand lfingers
    rclavicle rhumerus
    rhumerus rradius
    rradius rwrist
    rwrist rhand rthumb
    rhand rfingers
  end

#!OML:ASF F:\VICON\USERDATA\INSTALL\rory3\rory3.ASF
:FULLY-SPECIFIED
:DEGREES
751
root -0.353078 15.0125 -2.396 -1.99409 8.30097 -1.27212
lowerback 27.2628 3.65918 -3.21495
upperback 12.4024 3.85741 -3.20354
thorax -1.15467 1.9437 -2.71251
lowerneck -5.84866 -6.9679 -15.0009
upperneck 8.99937 -9.19444 12.5075
head 4.93416 -4.42928 5.73319
rclavicle 8.74653e-015 2.38542e-015
rhumerus 30.1773 -29.4431 -23.865
rradius 41.18
rwrist -26.4958
rhand 9.64524 12.113
rfingers 7.12502
rthumb 34.7898 -14.4919
lclavicle 8.74653e-015 2.38542e-015
lhumerus 31.3152 29.9852 13.5022
lradius 49.8319
lwrist 51.31
lhand 8.11967 17.2675
lfingers 7.12502
lthumb 33.3408 44.1952
rfemur -26.5584 -5.0946 18.6301
rtibia 51.2165
rfoot -17.9653 -7.22934
rtoes -13.4065
lfemur -28.2999 -2.98492 -12.279
ltibia 46.1216
lfoot -10.6373 -9.15626
ltoes -10.3876
752
root -0.356187 15.0105 -2.40392 -2.08726 8.31117 -1.30872
lowerback 27.3996 3.6703 -3.16996
upperback 12.4913 3.88081 -3.15421
thorax -1.11809 1.95605 -2.69561
lowerneck -5.83802 -7.01077 -15.1329
upperneck 8.99307 -9.25342 12.6205
head 4.95076 -4.45759 5.78599
rclavicle -6.52014e-014 3.4191e-014
rhumerus 30.6875 -29.6124 -24.3279
rradius 40.9847
rwrist -26.0612
rhand 9.78906 12.2557
rfingers 7.12502
rthumb 34.9262 -14.3175
lclavicle -6.52014e-014 3.4191e-014
lhumerus 31.2866 30.0591 13.5131
lradius 49.833
lwrist 51.3676
lhand 8.09337 17.2957
lfingers 7.12502
lthumb 33.3158 44.2287
rfemur -26.5092 -5.10295 18.6695
rtibia 51.2415
rfoot -17.939 -7.2643
rtoes -13.5483
lfemur -28.265 -3.01598 -12.2402
ltibia 46.1582
lfoot -10.6535 -9.12898
ltoes -10.2838
753
root -0.359155 15.0082 -2.41211 -2.16072 8.28735 -1.3862
lowerback 27.5002 3.68596 -3.11678
upperback 12.6021 3.9157 -3.08192
thorax -1.04103 1.97342 -2.65826
lowerneck -6.01277 -7.0526 -15.2442
upperneck 9.1223 -9.29425 12.7043
head 5.0353 -4.47139 5.82222
rclavicle 4.77083e-015 0
rhumerus 31.2219 -29.7804 -24.7531
rradius 40.8555
rwrist -25.7387
rhand 9.96696 12.438
rfingers 7.12502
rthumb 35.095 -14.0958
lclavicle 4.77083e-015 0
lhumerus 31.2289 30.1602 13.522
lradius 49.8361
lwrist 51.3658
lhand 8.03608 17.3797
lfingers 7.12502
lthumb 33.2613 44.3244
rfemur -26.4923 -5.06792 18.7569
rtibia 51.2632
rfoot -17.9469 -7.26437
rtoes -13.4512
lfemur -28.2567 -2.99237 -12.1519
ltibia 46.2014
lfoot -10.6809 -9.10729
ltoes -10.6711
754
root -0.360705 15.0052 -2.42059 -2.24459 8.27655 -1.46399
lowerback 27.6521 3.68136 -2.97786
upperback 12.6996 3.94073 -3.04115
thorax -0.994956 1.99101 -2.70481
lowerneck -6.31962 -7.10144 -15.2062
upperneck 9.40603 -9.3317 12.612
head 5.17335 -4.48228 5.77329
rclavicle 6.75868e-014 -6.91771e-014
rhumerus 31.3155 -29.5727 -24.656
rradius 40.92
rwrist -25.8746
rhand 9.86919 12.4935
rfingers 7.12502
rthumb 35.0023 -14.0621
lclavicle 6.75868e-014 -6.91771e-014
lhumerus 31.2014 30.1931 13.5131
lradius 49.8247
lwrist 51.3828
lhand 7.9534 17.3194
lfingers 7.12502
lthumb 33.1827 44.2809
rfemur -26.4638 -5.0557 18.8362
rtibia 51.2863
rfoot -17.9405 -7.23291
rtoes -13.1745
lfemur -28.2425 -3.02797 -12.0614
ltibia 46.2646
lfoot -10.7201 -9.04383
ltoes -10.9942
755
root -0.364206 15.0005 -2.42897 -2.29954 8.31642 -1.58209
lowerback 27.7684 3.6572 -2.74971
upperback 12.772 3.96277 -3.03638
thorax -0.952522 2.01272 -2.83912
lowerneck -6.40047 -7.12943 -14.9298
upperneck 9.45047 -9.3667 12.4101
head 5.18236 -4.49683 5.65669
rclavicle -1.66979e-014 3.18055e-015
rhumerus 31.1821 -29.3243 -24.4138
rradius 41.0221
rwrist -26.2317
rhand 9.67719 12.4815
rfingers 7.12502
rthumb 34.8201 -14.1164
lclavicle -1.66979e-014 3.18055e-015
lhumerus 31.3012 30.1768 13.4659
lradius 49.8001
lwrist 51.4748
lhand 7.80695 17.1767
lfingers 7.12502
lthumb 33.0435 44.1677
rfemur -26.4749 -5.06011 18.9683
rtibia 51.3299
rfoot -17.9493 -7.23737
rtoes -13.0674
lfemur -28.3005 -3.05239 -11.921
ltibia 46.3392
lfoot -10.678 -9.09485
ltoes -10.921
756
root -0.369725 14.9949 -2.4379 -2.36405 8.39211 -1.62863
lowerback 27.872 3.65889 -2.65787
upperback 12.8732 3.98912 -2.99782
thorax -0.882004 2.0299 -2.85871
lowerneck -6.33197 -7.18103 -14.8347
upperneck 9.30718 -9.44287 12.3859
head 5.13187 -4.53429 5.62776
rclavicle -4.77083e-015 5.80451e-014
rhumerus 31.2186 -29.277 -24.3329
rradius 41.121
rwrist -26.4087
rhand 9.71182 12.3696
rfingers 7.12502
rthumb 34.853 -14.2206
lclavicle -4.77083e-015 5.80451e-014
lhumerus 31.4299 30.2012 13.48
lradius 49.7667
lwrist 51.5568
lhand 7.8061 17.1924
lfingers 7.12502
lthumb 33.0426 44.1836
rfemur -26.4813 -5.10769 19.0316
rtibia 51.3999
rfoot -17.957 -7.27033
rtoes -13.0487
lfemur -28.3493 -3.0822 -11.8507
ltibia 46.4105
lfoot -10.6229 -9.19335
ltoes -10.7025
757
root -0.373622 14.989 -2.44706 -2.36928 8.52241 -1.54973
lowerback 27.9312 3.64513 -2.73718
upperback 12.9735 3.95885 -2.93091
thorax -0.806409 2.01028 -2.73208
lowerneck -6.33208 -7.22758 -14.9249
upperneck 9.26972 -9.49851 12.4272
head 5.13493 -4.56252 5.65013
rclavicle 1.03368e-014 1.51076e-014
rhumerus 31.3394 -29.0909 -24.1913
rradius 41.2796
rwrist -26.4967
rhand 9.7138 12.3672
rfingers 7.12502
rthumb 34.8548 -14.2227
lclavicle 1.03368e-014 1.51076e-014
lhumerus 31.4411 30.2972 13.5769
lradius 49.7365
lwrist 51.4851
lhand 7.93007 17.3239
lfingers 7.12502
lthumb 33.1605 44.2901
rfemur -26.535 -5.22052 18.9411
rtibia 51.4946
rfoot -17.9938 -7.28225
rtoes -13.0782
lfemur -28.4283 -3.14875 -11.9403
ltibia 46.4707
lfoot -10.5782 -9.22478
ltoes -10.2342
